<svg xmlns="http://www.w3.org/2000/svg" viewBox="0 0 300 200"><defs><style>.cls-1{fill:#fff;}.cls-2{fill:none;stroke:#101010;stroke-linecap:round;stroke-miterlimit:10;stroke-width:3px;}</style></defs><title>menu</title><g id="bg"><rect class="cls-1" width="300" height="200"/></g><g id="menu"><g id="C"><path class="cls-2" d="M278.75,96.65c-12.39,0-10.34-40.48-10.34-40.48,0-27.36,10.13-48.46,14.13-48.29s2.3,4.94,3.37,44.82-3.37,43.51-3.37,43.51v95.91"/></g><g id="B"><polyline class="cls-2" points="26.55 192.12 26.55 57.5 12.23 45.75 12.23 7.88"/><polyline class="cls-2" points="34.58 57.5 43.82 45.75 43.82 7.88"/><line class="cls-2" x1="32.97" y1="43.58" x2="32.97" y2="7.88"/><line class="cls-2" x1="23.52" y1="43.58" x2="23.52" y2="7.88"/></g><g id="A"><circle class="cls-2" cx="150" cy="100" r="88.33"/><path class="cls-2" d="M201.1,108.24S199.42,154,151.76,154"/><path class="cls-2" d="M97.15,91.14s1.69-45.75,49.34-45.75"/></g></g></svg>